<svg xmlns="http://www.w3.org/2000/svg" xmlns:xlink="http://www.w3.org/1999/xlink" width="500" zoomAndPan="magnify" viewBox="0 0 375 374.999991" height="500" preserveAspectRatio="xMidYMid meet" version="1.0"><defs><clipPath id="c3f4435540"><path d="M 112.5 112.5 L 262.5 112.5 L 262.5 262.5 L 112.5 262.5 Z M 112.5 112.5 " clip-rule="nonzero"/></clipPath></defs><g clip-path="url(#c3f4435540)"><path fill="#f3e57a" d="M 262.5 187.5 C 262.5 208.132812 255.152344 225.796875 240.472656 240.472656 C 225.796875 255.152344 208.132812 262.5 187.5 262.5 C 166.867188 262.5 149.203125 255.152344 134.527344 240.472656 C 119.847656 225.796875 112.5 208.132812 112.5 187.5 C 112.5 166.867188 119.847656 149.203125 134.527344 134.527344 C 149.203125 119.847656 166.867188 112.5 187.5 112.5 C 208.132812 112.5 225.796875 119.847656 240.472656 134.527344 C 255.152344 149.203125 262.5 166.867188 262.5 187.5 Z M 117.855469 187.5 C 117.855469 196.929688 119.695312 205.929688 123.367188 214.515625 C 127.039062 223.101562 132 230.511719 138.246094 236.753906 C 144.488281 243 151.914062 247.960938 160.484375 251.632812 C 169.070312 255.304688 178.070312 257.144531 187.5 257.144531 C 196.929688 257.144531 205.929688 255.304688 214.515625 251.632812 C 223.101562 247.960938 230.511719 243 236.753906 236.753906 C 243 230.511719 247.960938 223.085938 251.632812 214.515625 C 255.304688 205.929688 257.144531 196.929688 257.144531 187.5 C 257.144531 178.070312 255.304688 169.070312 251.632812 160.484375 C 247.960938 151.898438 243 144.488281 236.753906 138.246094 C 230.511719 132 223.085938 127.039062 214.515625 123.367188 C 205.945312 119.695312 196.929688 117.855469 187.5 117.855469 C 178.070312 117.855469 169.070312 119.695312 160.484375 123.367188 C 151.898438 127.039062 144.488281 132 138.246094 138.246094 C 132 144.488281 127.039062 151.914062 123.367188 160.484375 C 119.695312 169.054688 117.855469 178.070312 117.855469 187.5 Z M 187.5 231.398438 L 232.285156 186.75 L 228.414062 182.878906 L 190.164062 221.265625 L 190.164062 144.644531 L 184.804688 144.644531 L 184.804688 221.28125 L 149.25 185.570312 L 145.378906 189.445312 Z M 187.5 231.398438 " fill-opacity="1" fill-rule="nonzero"/></g></svg>