<svg xmlns="http://www.w3.org/2000/svg" xmlns:xlink="http://www.w3.org/1999/xlink" width="150" zoomAndPan="magnify" viewBox="0 0 112.5 112.499997" height="150" preserveAspectRatio="xMidYMid meet" version="1.0"><defs><clipPath id="b0e45cdc04"><path d="M 33.75 33.75 L 78.75 33.75 L 78.75 78.75 L 33.75 78.75 Z M 33.75 33.75 " clip-rule="nonzero"/></clipPath></defs><g clip-path="url(#b0e45cdc04)"><path fill="#f3e57a" d="M 78.75 56.25 C 78.75 62.441406 76.546875 67.738281 72.140625 72.140625 C 67.738281 76.546875 62.441406 78.75 56.25 78.75 C 50.058594 78.75 44.761719 76.546875 40.359375 72.140625 C 35.953125 67.738281 33.75 62.441406 33.75 56.25 C 33.75 50.058594 35.953125 44.761719 40.359375 40.359375 C 44.761719 35.953125 50.058594 33.75 56.25 33.75 C 62.441406 33.75 67.738281 35.953125 72.140625 40.359375 C 76.546875 44.761719 78.75 50.058594 78.75 56.25 Z M 35.355469 56.25 C 35.355469 59.078125 35.90625 61.777344 37.011719 64.355469 C 38.113281 66.929688 39.601562 69.152344 41.472656 71.027344 C 43.347656 72.898438 45.574219 74.386719 48.144531 75.488281 C 50.722656 76.59375 53.421875 77.144531 56.25 77.144531 C 59.078125 77.144531 61.777344 76.59375 64.355469 75.488281 C 66.929688 74.386719 69.152344 72.898438 71.027344 71.027344 C 72.898438 69.152344 74.386719 66.925781 75.488281 64.355469 C 76.59375 61.777344 77.144531 59.078125 77.144531 56.25 C 77.144531 53.421875 76.59375 50.722656 75.488281 48.144531 C 74.386719 45.570312 72.898438 43.347656 71.027344 41.472656 C 69.152344 39.601562 66.925781 38.113281 64.355469 37.011719 C 61.78125 35.90625 59.078125 35.355469 56.25 35.355469 C 53.421875 35.355469 50.722656 35.90625 48.144531 37.011719 C 45.570312 38.113281 43.347656 39.601562 41.472656 41.472656 C 39.601562 43.347656 38.113281 45.574219 37.011719 48.144531 C 35.90625 50.71875 35.355469 53.421875 35.355469 56.25 Z M 56.25 69.417969 L 69.6875 56.023438 L 68.523438 54.863281 L 57.050781 66.378906 L 57.050781 43.394531 L 55.441406 43.394531 L 55.441406 66.382812 L 44.773438 55.671875 L 43.613281 56.832031 Z M 56.25 69.417969 " fill-opacity="1" fill-rule="nonzero"/></g></svg>